<mxfile host="65bd71144e">
    <diagram id="GC3d5SEIMlqQDpdu6AJr" name="Page-1">
        <mxGraphModel dx="1247" dy="657" grid="1" gridSize="10" guides="1" tooltips="1" connect="1" arrows="1" fold="1" page="1" pageScale="1" pageWidth="850" pageHeight="1100" math="0" shadow="0">
            <root>
                <mxCell id="0"/>
                <mxCell id="1" parent="0"/>
                <mxCell id="wi9Bhf0zNv-aggHsFR5M-1" value="" style="whiteSpace=wrap;html=1;aspect=fixed;" parent="1" vertex="1">
                    <mxGeometry x="220" y="140" width="50" height="50" as="geometry"/>
                </mxCell>
                <mxCell id="wi9Bhf0zNv-aggHsFR5M-2" value="" style="whiteSpace=wrap;html=1;aspect=fixed;" parent="1" vertex="1">
                    <mxGeometry x="272" y="140" width="50" height="50" as="geometry"/>
                </mxCell>
                <mxCell id="wi9Bhf0zNv-aggHsFR5M-3" value="" style="whiteSpace=wrap;html=1;aspect=fixed;" parent="1" vertex="1">
                    <mxGeometry x="324" y="140" width="50" height="50" as="geometry"/>
                </mxCell>
                <mxCell id="wi9Bhf0zNv-aggHsFR5M-4" value="4" style="whiteSpace=wrap;html=1;aspect=fixed;fillColor=#4D4D4D;" parent="1" vertex="1">
                    <mxGeometry x="376" y="140" width="50" height="50" as="geometry"/>
                </mxCell>
                <mxCell id="wi9Bhf0zNv-aggHsFR5M-5" value="" style="whiteSpace=wrap;html=1;aspect=fixed;" parent="1" vertex="1">
                    <mxGeometry x="220" y="192" width="50" height="50" as="geometry"/>
                </mxCell>
                <mxCell id="wi9Bhf0zNv-aggHsFR5M-6" value="" style="whiteSpace=wrap;html=1;aspect=fixed;" parent="1" vertex="1">
                    <mxGeometry x="272" y="192" width="50" height="50" as="geometry"/>
                </mxCell>
                <mxCell id="wi9Bhf0zNv-aggHsFR5M-7" value="2" style="whiteSpace=wrap;html=1;aspect=fixed;fillColor=#B3B3B3;" parent="1" vertex="1">
                    <mxGeometry x="324" y="192" width="50" height="50" as="geometry"/>
                </mxCell>
                <mxCell id="wi9Bhf0zNv-aggHsFR5M-8" value="2" style="whiteSpace=wrap;html=1;aspect=fixed;fillColor=#B3B3B3;" parent="1" vertex="1">
                    <mxGeometry x="376" y="192" width="50" height="50" as="geometry"/>
                </mxCell>
                <mxCell id="wi9Bhf0zNv-aggHsFR5M-9" value="" style="whiteSpace=wrap;html=1;aspect=fixed;" parent="1" vertex="1">
                    <mxGeometry x="220" y="244" width="50" height="50" as="geometry"/>
                </mxCell>
                <mxCell id="wi9Bhf0zNv-aggHsFR5M-10" value="" style="whiteSpace=wrap;html=1;aspect=fixed;" parent="1" vertex="1">
                    <mxGeometry x="272" y="244" width="50" height="50" as="geometry"/>
                </mxCell>
                <mxCell id="wi9Bhf0zNv-aggHsFR5M-11" value="" style="whiteSpace=wrap;html=1;aspect=fixed;" parent="1" vertex="1">
                    <mxGeometry x="324" y="244" width="50" height="50" as="geometry"/>
                </mxCell>
                <mxCell id="wi9Bhf0zNv-aggHsFR5M-12" value="2" style="whiteSpace=wrap;html=1;aspect=fixed;fillColor=#B3B3B3;" parent="1" vertex="1">
                    <mxGeometry x="376" y="244" width="50" height="50" as="geometry"/>
                </mxCell>
                <mxCell id="CsA70eIJGZtUb_FbTeEb-2" value="4" style="whiteSpace=wrap;html=1;aspect=fixed;fillColor=#4D4D4D;" parent="1" vertex="1">
                    <mxGeometry x="428" y="140" width="50" height="50" as="geometry"/>
                </mxCell>
                <mxCell id="CsA70eIJGZtUb_FbTeEb-3" value="2" style="whiteSpace=wrap;html=1;aspect=fixed;fillColor=#B3B3B3;" parent="1" vertex="1">
                    <mxGeometry x="428" y="192" width="50" height="50" as="geometry"/>
                </mxCell>
                <mxCell id="CsA70eIJGZtUb_FbTeEb-4" value="2" style="whiteSpace=wrap;html=1;aspect=fixed;fillColor=#B3B3B3;" parent="1" vertex="1">
                    <mxGeometry x="428" y="244" width="50" height="50" as="geometry"/>
                </mxCell>
                <mxCell id="CsA70eIJGZtUb_FbTeEb-5" value="" style="whiteSpace=wrap;html=1;aspect=fixed;" parent="1" vertex="1">
                    <mxGeometry x="480" y="140" width="50" height="50" as="geometry"/>
                </mxCell>
                <mxCell id="CsA70eIJGZtUb_FbTeEb-6" value="" style="whiteSpace=wrap;html=1;aspect=fixed;" parent="1" vertex="1">
                    <mxGeometry x="480" y="192" width="50" height="50" as="geometry"/>
                </mxCell>
                <mxCell id="CsA70eIJGZtUb_FbTeEb-7" value="2" style="whiteSpace=wrap;html=1;aspect=fixed;fillColor=#B3B3B3;" parent="1" vertex="1">
                    <mxGeometry x="480" y="244" width="50" height="50" as="geometry"/>
                </mxCell>
                <mxCell id="CsA70eIJGZtUb_FbTeEb-8" value="4" style="whiteSpace=wrap;html=1;aspect=fixed;fillColor=#4D4D4D;" parent="1" vertex="1">
                    <mxGeometry x="532" y="140" width="50" height="50" as="geometry"/>
                </mxCell>
                <mxCell id="CsA70eIJGZtUb_FbTeEb-9" value="" style="whiteSpace=wrap;html=1;aspect=fixed;" parent="1" vertex="1">
                    <mxGeometry x="532" y="192" width="50" height="50" as="geometry"/>
                </mxCell>
                <mxCell id="CsA70eIJGZtUb_FbTeEb-10" value="2" style="whiteSpace=wrap;html=1;aspect=fixed;fillColor=#B3B3B3;" parent="1" vertex="1">
                    <mxGeometry x="532" y="244" width="50" height="50" as="geometry"/>
                </mxCell>
                <mxCell id="CsA70eIJGZtUb_FbTeEb-11" value="" style="whiteSpace=wrap;html=1;aspect=fixed;" parent="1" vertex="1">
                    <mxGeometry x="220" y="296" width="50" height="50" as="geometry"/>
                </mxCell>
                <mxCell id="CsA70eIJGZtUb_FbTeEb-12" value="" style="whiteSpace=wrap;html=1;aspect=fixed;" parent="1" vertex="1">
                    <mxGeometry x="272" y="296" width="50" height="50" as="geometry"/>
                </mxCell>
                <mxCell id="CsA70eIJGZtUb_FbTeEb-13" value="" style="whiteSpace=wrap;html=1;aspect=fixed;" parent="1" vertex="1">
                    <mxGeometry x="324" y="296" width="50" height="50" as="geometry"/>
                </mxCell>
                <mxCell id="CsA70eIJGZtUb_FbTeEb-14" value="" style="whiteSpace=wrap;html=1;aspect=fixed;fillColor=#FFFFFF;" parent="1" vertex="1">
                    <mxGeometry x="376" y="296" width="50" height="50" as="geometry"/>
                </mxCell>
                <mxCell id="CsA70eIJGZtUb_FbTeEb-15" value="" style="whiteSpace=wrap;html=1;aspect=fixed;" parent="1" vertex="1">
                    <mxGeometry x="428" y="296" width="50" height="50" as="geometry"/>
                </mxCell>
                <mxCell id="CsA70eIJGZtUb_FbTeEb-16" value="" style="whiteSpace=wrap;html=1;aspect=fixed;" parent="1" vertex="1">
                    <mxGeometry x="480" y="296" width="50" height="50" as="geometry"/>
                </mxCell>
                <mxCell id="CsA70eIJGZtUb_FbTeEb-17" value="" style="whiteSpace=wrap;html=1;aspect=fixed;" parent="1" vertex="1">
                    <mxGeometry x="532" y="296" width="50" height="50" as="geometry"/>
                </mxCell>
                <mxCell id="CsA70eIJGZtUb_FbTeEb-18" value="" style="whiteSpace=wrap;html=1;aspect=fixed;" parent="1" vertex="1">
                    <mxGeometry x="220" y="348" width="50" height="50" as="geometry"/>
                </mxCell>
                <mxCell id="CsA70eIJGZtUb_FbTeEb-19" value="" style="whiteSpace=wrap;html=1;aspect=fixed;" parent="1" vertex="1">
                    <mxGeometry x="272" y="348" width="50" height="50" as="geometry"/>
                </mxCell>
                <mxCell id="CsA70eIJGZtUb_FbTeEb-20" value="" style="whiteSpace=wrap;html=1;aspect=fixed;" parent="1" vertex="1">
                    <mxGeometry x="324" y="348" width="50" height="50" as="geometry"/>
                </mxCell>
                <mxCell id="CsA70eIJGZtUb_FbTeEb-21" value="" style="whiteSpace=wrap;html=1;aspect=fixed;fillColor=#FFFFFF;" parent="1" vertex="1">
                    <mxGeometry x="376" y="348" width="50" height="50" as="geometry"/>
                </mxCell>
                <mxCell id="CsA70eIJGZtUb_FbTeEb-22" value="" style="whiteSpace=wrap;html=1;aspect=fixed;" parent="1" vertex="1">
                    <mxGeometry x="428" y="348" width="50" height="50" as="geometry"/>
                </mxCell>
                <mxCell id="CsA70eIJGZtUb_FbTeEb-23" value="" style="whiteSpace=wrap;html=1;aspect=fixed;" parent="1" vertex="1">
                    <mxGeometry x="480" y="348" width="50" height="50" as="geometry"/>
                </mxCell>
                <mxCell id="CsA70eIJGZtUb_FbTeEb-24" value="" style="whiteSpace=wrap;html=1;aspect=fixed;" parent="1" vertex="1">
                    <mxGeometry x="532" y="348" width="50" height="50" as="geometry"/>
                </mxCell>
                <mxCell id="cal2lbhvoZ3OgB7n_fgh-2" value="" style="shape=mxgraph.signs.food.fast_food;html=1;pointerEvents=1;fillColor=#000000;strokeColor=none;verticalLabelPosition=bottom;verticalAlign=top;align=center;sketch=0;" parent="1" vertex="1">
                    <mxGeometry x="488" y="151.5" width="34" height="27" as="geometry"/>
                </mxCell>
                <mxCell id="cal2lbhvoZ3OgB7n_fgh-3" value="" style="shape=mxgraph.signs.sports.cycling;html=1;pointerEvents=1;fillColor=#000000;strokeColor=none;verticalLabelPosition=bottom;verticalAlign=top;align=center;sketch=0;" parent="1" vertex="1">
                    <mxGeometry x="226" y="148.5" width="38" height="33" as="geometry"/>
                </mxCell>
                <mxCell id="cal2lbhvoZ3OgB7n_fgh-4" value="2" style="whiteSpace=wrap;html=1;aspect=fixed;fillColor=#B3B3B3;" parent="1" vertex="1">
                    <mxGeometry x="324" y="140" width="50" height="50" as="geometry"/>
                </mxCell>
                <mxCell id="2" value="" style="whiteSpace=wrap;html=1;aspect=fixed;" vertex="1" parent="1">
                    <mxGeometry x="220" y="88" width="50" height="50" as="geometry"/>
                </mxCell>
                <mxCell id="3" value="" style="whiteSpace=wrap;html=1;aspect=fixed;" vertex="1" parent="1">
                    <mxGeometry x="272" y="88" width="50" height="50" as="geometry"/>
                </mxCell>
                <mxCell id="4" value="&lt;font color=&quot;#4d4d4d&quot;&gt;2&lt;/font&gt;" style="whiteSpace=wrap;html=1;aspect=fixed;fillColor=#B3B3B3;fontColor=#ffffff;strokeColor=#314354;" vertex="1" parent="1">
                    <mxGeometry x="324" y="88" width="50" height="50" as="geometry"/>
                </mxCell>
                <mxCell id="5" value="2" style="whiteSpace=wrap;html=1;aspect=fixed;fillColor=#B3B3B3;" vertex="1" parent="1">
                    <mxGeometry x="376" y="88" width="50" height="50" as="geometry"/>
                </mxCell>
                <mxCell id="6" value="2" style="whiteSpace=wrap;html=1;aspect=fixed;fillColor=#999999;" vertex="1" parent="1">
                    <mxGeometry x="428" y="88" width="50" height="50" as="geometry"/>
                </mxCell>
                <mxCell id="7" value="4" style="whiteSpace=wrap;html=1;aspect=fixed;fillColor=#4D4D4D;" vertex="1" parent="1">
                    <mxGeometry x="480" y="88" width="50" height="50" as="geometry"/>
                </mxCell>
                <mxCell id="8" value="4" style="whiteSpace=wrap;html=1;aspect=fixed;fillColor=#4D4D4D;" vertex="1" parent="1">
                    <mxGeometry x="532" y="88" width="50" height="50" as="geometry"/>
                </mxCell>
                <mxCell id="9" value="" style="whiteSpace=wrap;html=1;aspect=fixed;" vertex="1" parent="1">
                    <mxGeometry x="220" y="36" width="50" height="50" as="geometry"/>
                </mxCell>
                <mxCell id="10" value="" style="whiteSpace=wrap;html=1;aspect=fixed;" vertex="1" parent="1">
                    <mxGeometry x="272" y="36" width="50" height="50" as="geometry"/>
                </mxCell>
                <mxCell id="11" value="" style="whiteSpace=wrap;html=1;aspect=fixed;" vertex="1" parent="1">
                    <mxGeometry x="324" y="36" width="50" height="50" as="geometry"/>
                </mxCell>
                <mxCell id="12" value="" style="whiteSpace=wrap;html=1;aspect=fixed;fillColor=#FFFFFF;" vertex="1" parent="1">
                    <mxGeometry x="376" y="36" width="50" height="50" as="geometry"/>
                </mxCell>
                <mxCell id="13" value="" style="whiteSpace=wrap;html=1;aspect=fixed;" vertex="1" parent="1">
                    <mxGeometry x="428" y="36" width="50" height="50" as="geometry"/>
                </mxCell>
                <mxCell id="14" value="" style="whiteSpace=wrap;html=1;aspect=fixed;" vertex="1" parent="1">
                    <mxGeometry x="480" y="36" width="50" height="50" as="geometry"/>
                </mxCell>
                <mxCell id="15" value="" style="whiteSpace=wrap;html=1;aspect=fixed;" vertex="1" parent="1">
                    <mxGeometry x="532" y="36" width="50" height="50" as="geometry"/>
                </mxCell>
                <mxCell id="16" value="" style="whiteSpace=wrap;html=1;aspect=fixed;" vertex="1" parent="1">
                    <mxGeometry x="585" y="140" width="50" height="50" as="geometry"/>
                </mxCell>
                <mxCell id="17" value="" style="whiteSpace=wrap;html=1;aspect=fixed;" vertex="1" parent="1">
                    <mxGeometry x="585" y="192" width="50" height="50" as="geometry"/>
                </mxCell>
                <mxCell id="18" value="" style="whiteSpace=wrap;html=1;aspect=fixed;" vertex="1" parent="1">
                    <mxGeometry x="585" y="244" width="50" height="50" as="geometry"/>
                </mxCell>
                <mxCell id="19" value="" style="whiteSpace=wrap;html=1;aspect=fixed;" vertex="1" parent="1">
                    <mxGeometry x="585" y="296" width="50" height="50" as="geometry"/>
                </mxCell>
                <mxCell id="20" value="" style="whiteSpace=wrap;html=1;aspect=fixed;" vertex="1" parent="1">
                    <mxGeometry x="585" y="348" width="50" height="50" as="geometry"/>
                </mxCell>
                <mxCell id="21" value="" style="whiteSpace=wrap;html=1;aspect=fixed;" vertex="1" parent="1">
                    <mxGeometry x="585" y="88" width="50" height="50" as="geometry"/>
                </mxCell>
                <mxCell id="22" value="" style="whiteSpace=wrap;html=1;aspect=fixed;" vertex="1" parent="1">
                    <mxGeometry x="585" y="36" width="50" height="50" as="geometry"/>
                </mxCell>
            </root>
        </mxGraphModel>
    </diagram>
</mxfile>